<svg width="197" height="748" viewBox="0 0 197 748" fill="none" xmlns="http://www.w3.org/2000/svg">
<path d="M112.21 69.5483C112.285 83.4681 108.803 90.4472 101.764 90.4856C93.6037 90.5301 89.4801 82.5525 89.3928 66.5527C89.3736 63.0328 89.9927 59.1893 91.25 55.0224C88.0247 50.3999 84.0051 46.8218 79.1912 44.288C74.3782 41.9142 67.4118 40.7522 58.2919 40.802C49.332 40.8509 42.7113 44.407 38.4298 51.4705C34.1492 58.6939 32.035 67.1056 32.0874 76.7055C32.1406 86.4653 33.7034 94.2969 36.7756 100.2C40.0087 106.263 43.4775 111.524 47.1819 115.984C50.8862 120.444 54.2658 124.025 57.3206 126.729C60.5363 129.591 62.1476 131.662 62.1546 132.942C62.1616 134.222 61.2873 135.267 59.5316 136.077C57.936 136.885 55.7782 137.297 53.0583 137.312C40.2585 137.382 28.9398 130.323 19.1023 116.137C9.42561 102.109 4.5336 85.2559 4.42625 65.5762C4.25868 34.8566 13.0299 14.8885 30.7399 5.67175C36.9623 2.43776 44.4735 0.796762 53.2734 0.748759C76.153 0.623952 92.2152 11.9765 101.46 34.8064C109.556 23.0821 121.844 17.175 138.324 17.0851C146.164 17.0423 153.455 19.1626 160.199 23.4458C164.657 19.4215 169.359 16.1158 174.305 13.5287C179.252 11.1017 183.005 9.88122 185.565 9.86726C190.045 9.84282 192.294 11.4306 192.311 14.6305C192.323 16.8705 190.578 19.6001 187.076 22.8192C183.734 26.1975 181.029 28.9323 178.96 31.0236C176.892 33.1149 175.224 35.2841 173.956 37.531C182.35 51.0854 186.597 67.0625 186.697 85.4622C186.798 103.862 181.745 116.13 171.538 122.265C167.71 124.526 162.996 125.672 157.397 125.703C148.917 125.749 141.777 122.108 135.977 114.779C130.177 107.451 127.244 97.7867 127.178 85.7869C127.113 73.7871 130.892 62.5663 138.515 52.1245C137.874 51.968 137.234 51.8915 136.594 51.895L131.314 51.9238C128.434 51.9395 124.999 52.8383 121.008 54.6201C117.179 56.561 113.991 58.8984 111.446 61.6323C111.939 64.0297 112.194 66.6683 112.21 69.5483ZM153.651 99.0827C159.891 99.0486 162.983 93.9117 162.927 83.6718C162.871 73.432 159.707 65.2091 153.433 59.0033C148.2 67.6719 145.608 76.4862 145.657 85.4461C145.706 94.5659 148.371 99.1115 153.651 99.0827ZM121.931 179.728C122.149 190.447 120.193 198.458 116.062 203.761C112.091 209.062 106.265 211.734 98.5852 211.776C91.0653 211.817 84.5727 209.532 79.1075 204.922C73.8031 200.471 70.0131 194.972 67.7373 188.424C62.9627 193.09 58.1055 197.277 53.1656 200.984C48.2266 204.851 43.0372 206.799 37.5973 206.829C26.8774 206.887 18.5344 202.693 12.5682 194.245C6.76207 185.796 3.81753 173.972 3.73462 158.773C3.65257 143.733 6.551 132.437 12.4299 124.885C18.4688 117.332 25.2482 113.535 32.7681 113.494C40.4479 113.452 47.4179 115.254 53.6779 118.9C59.9387 122.705 63.0809 126.768 63.1045 131.088C63.1184 133.648 62.1685 135.493 60.2546 136.624C58.5008 137.754 53.2322 139.862 44.4489 142.95C41.2551 144.088 38.2252 145.944 35.3592 148.52C28.8315 154.476 25.6027 163.853 25.6725 176.653C31.7419 174.7 36.9248 171.552 41.2212 167.208C45.6784 163.024 49.9757 158.84 54.1129 154.658C58.2502 150.475 62.63 146.771 67.2525 143.546C72.035 140.32 77.6262 138.689 84.0261 138.654C95.5459 138.591 104.929 142.86 112.176 151.461C118.621 159.586 121.872 169.008 121.931 179.728ZM77.5261 179.01C84.4409 185.373 89.9783 188.543 94.1382 188.52C96.0582 188.509 97.7343 187.78 99.1664 186.332C100.759 185.044 101.549 183.119 101.535 180.559C101.521 177.999 101.187 175.521 100.534 173.125C99.8821 170.888 99.3921 169.051 99.0643 167.613C92.9843 167.646 85.805 171.445 77.5261 179.01ZM122.456 276.055C122.675 286.774 120.718 294.785 116.587 300.087C112.616 305.389 106.79 308.061 99.1106 308.103C91.5907 308.144 85.0982 305.859 79.6329 301.249C74.3286 296.798 70.5385 291.298 68.2628 284.751C63.4882 289.417 58.6309 293.603 53.6911 297.31C48.7521 301.177 43.5626 303.126 38.1227 303.155C27.4029 303.214 19.0599 299.019 13.0937 290.572C7.28753 282.123 4.34299 270.299 4.26007 255.099C4.17803 240.059 7.07646 228.764 12.9553 221.211C18.9942 213.658 25.7736 209.861 33.2935 209.82C40.9734 209.778 47.9433 211.58 54.2033 215.226C60.4642 219.032 63.6064 223.095 63.6299 227.415C63.6439 229.975 62.694 231.82 60.7801 232.951C59.0262 234.08 53.7577 236.189 44.9744 239.277C41.7805 240.414 38.7506 242.271 35.8846 244.847C29.357 250.802 26.1281 260.18 26.1979 272.98C32.2674 271.027 37.4503 267.878 41.7466 263.535C46.2039 259.351 50.5011 255.167 54.6384 250.984C58.7756 246.802 63.1555 243.098 67.778 239.873C72.5604 236.646 78.1516 235.016 84.5515 234.981C96.0714 234.918 105.455 239.187 112.702 247.788C119.146 255.913 122.398 265.335 122.456 276.055ZM78.0516 275.337C84.9664 281.699 90.5037 284.869 94.6637 284.847C96.5837 284.836 98.2597 284.107 99.6918 282.659C101.285 281.37 102.074 279.446 102.06 276.886C102.046 274.326 101.713 271.848 101.06 269.451C100.408 267.215 99.9176 265.378 99.5897 263.939C93.5098 263.973 86.3304 267.772 78.0516 275.337ZM32.9895 374.072C33.0576 386.552 38.0834 398.605 48.0669 410.231C51.7705 414.531 55.1496 418.032 58.2044 420.736C61.4192 423.438 63.0305 425.509 63.0384 426.949C63.0506 429.189 60.8167 430.321 56.3368 430.346C51.8569 430.37 46.8104 429.198 41.1974 426.828C35.7444 424.458 30.3626 420.487 25.0522 414.916C12.0173 401.227 5.43441 382.383 5.30349 358.383C5.19963 339.344 12.0088 326.346 25.7311 319.391C30.5179 316.965 37.3913 315.728 46.3512 315.679C55.311 315.63 64.6005 317.339 74.2195 320.807C83.9986 324.273 92.4238 328.868 99.4951 334.589C106.567 340.471 112.044 347.241 115.926 354.9C119.968 362.558 122.012 370.707 122.06 379.347C122.108 388.147 119.984 394.878 115.69 399.542C111.396 404.365 105.809 406.796 98.9292 406.833C92.0493 406.871 86.3598 405.142 81.8606 401.646C77.5224 398.31 73.8184 393.93 70.7488 388.507C67.8392 383.082 65.166 377.017 62.7294 370.31C60.4537 363.762 57.8583 357.297 54.9435 350.912L48.9436 350.945C43.1845 351.136 39.1177 353.559 36.743 358.212C34.3684 362.865 33.1172 368.152 32.9895 374.072ZM100.646 369.623C100.601 361.303 90.8896 355.596 71.5124 352.502C73.7707 355.85 75.7877 358.959 77.5634 361.829C79.3399 364.859 81.0343 367.49 82.6465 369.722C86.1926 374.502 90.2061 376.96 94.6869 377.096C98.6868 377.074 100.673 374.583 100.646 369.623ZM127.004 449.873C127.036 455.633 121.546 461.103 110.534 466.283C118.415 473.76 122.385 483.019 122.445 494.059C122.506 505.259 120.072 513.672 115.143 519.299C110.374 524.925 103.509 527.763 94.549 527.811C85.7492 527.859 76.7827 526.708 67.6498 524.358C58.5177 522.168 51.9486 520.524 47.9426 519.426C44.0974 518.487 40.8948 518.024 38.3349 518.038C35.7749 518.052 34.4997 518.939 34.5093 520.699C34.5224 523.099 36.0586 526.05 39.1177 529.554C42.1769 533.057 45.476 536.559 49.0152 540.06C52.7143 543.56 56.0917 546.741 59.1474 549.605C62.2039 552.628 63.7352 554.7 63.7414 555.82C63.7536 558.06 61.0397 559.195 55.5998 559.224C44.4 559.285 33.57 553.824 23.1099 542.841C12.1289 524.341 6.62436 512.531 6.59643 507.411C6.59382 506.931 6.67207 506.61 6.83119 506.45C6.76137 493.65 16.9663 487.194 37.446 487.082C46.2459 487.034 54.3301 487.79 61.6987 489.35C69.0682 491.07 74.4351 492.321 77.7994 493.102C81.1638 493.884 84.6059 494.265 88.1258 494.246C93.8858 494.215 96.7474 490.839 96.7107 484.119C96.6749 477.559 91.6805 471.266 81.7275 465.24C71.9354 459.374 61.7537 455.429 51.1825 453.407L49.5025 453.416C44.0626 453.446 38.4671 454.276 32.7159 455.908C26.9656 457.699 22.9704 458.601 20.7305 458.613C15.2905 458.643 9.89353 451.872 4.53942 438.301C3.72808 436.225 3.31805 434.388 3.30933 432.788C3.28751 428.788 5.3522 425.976 9.50341 424.354C13.6555 422.891 20.1315 422.136 28.9313 422.088C51.651 421.964 68.0556 422.754 78.145 424.459C93.1979 426.777 107.227 432.141 120.233 440.55C124.729 443.406 126.986 446.513 127.004 449.873ZM64.9341 642.481C64.9498 645.361 62.4777 646.814 57.5178 646.841C52.7178 646.868 47.5109 645.616 41.8971 643.087C36.284 640.717 30.8236 636.987 25.5158 631.896C20.3688 626.964 15.9339 620.588 12.2112 612.768C8.48852 604.948 6.59792 595.678 6.53945 584.959C6.48184 574.399 9.55118 565.102 15.7474 557.068C22.1037 549.033 31.2018 544.983 43.0416 544.919C55.0414 544.853 65.8513 546.635 75.4712 550.262C85.252 554.049 93.6789 558.963 100.752 565.004C107.826 571.206 113.304 578.216 117.187 586.035C121.23 593.853 123.27 601.282 123.309 608.322C123.376 620.642 118.53 626.828 108.77 626.882C103.17 626.912 98.6833 625.737 95.3102 623.355C91.938 621.133 90.2454 618.823 90.2323 616.423C90.2149 613.223 91.3196 610.417 93.5465 608.004C95.7733 605.592 96.8789 602.946 96.8632 600.066C97.0075 597.185 95.6322 594.393 92.7374 591.689C89.8435 589.144 86.1518 587.004 81.6623 585.269C72.6832 581.798 62.1937 580.095 50.1939 580.16C44.4349 580.352 40.1293 583.015 37.2773 588.151C35.3765 591.681 34.3593 595.847 34.2254 600.648C34.2516 605.448 35.8765 609.999 39.1 614.301C42.3244 618.764 45.7866 622.825 49.4866 626.485C53.3466 630.144 56.884 633.325 60.0988 636.027C63.3145 638.89 64.9262 641.041 64.9341 642.481ZM34.718 690.943C34.7861 703.423 39.8119 715.475 49.7955 727.101C53.499 731.401 56.8781 734.903 59.9329 737.606C63.1477 740.308 64.759 742.38 64.7669 743.82C64.7791 746.06 62.5452 747.192 58.0653 747.216C53.5854 747.241 48.5389 746.068 42.9259 743.699C37.4729 741.328 32.0911 737.358 26.7807 731.787C13.7458 718.098 7.16292 699.253 7.032 675.254C6.92814 656.214 13.7373 643.216 27.4596 636.262C32.2464 633.835 39.1198 632.598 48.0797 632.549C57.0395 632.5 66.329 634.209 75.9481 637.677C85.7271 641.144 94.1523 645.738 101.224 651.459C108.296 657.341 113.773 664.111 117.655 671.77C121.696 679.428 123.741 687.577 123.788 696.217C123.836 705.017 121.713 711.748 117.418 716.412C113.124 721.235 107.538 723.666 100.658 723.704C93.7778 723.741 88.0883 722.012 83.5891 718.517C79.2509 715.18 75.5469 710.8 72.4773 705.377C69.5677 699.953 66.8945 693.887 64.4579 687.18C62.1822 680.633 59.5869 674.167 56.672 667.783L50.6721 667.815C44.913 668.007 40.8462 670.429 38.4715 675.082C36.0969 679.735 34.8457 685.022 34.718 690.943ZM102.375 686.494C102.329 678.174 92.6181 672.467 73.2409 669.372C75.4992 672.72 77.5162 675.829 79.2919 678.699C81.0684 681.73 82.7628 684.361 84.375 686.592C87.9211 691.373 91.9346 693.831 96.4154 693.966C100.415 693.944 102.402 691.454 102.375 686.494Z" fill="#EDE0D4"/>
</svg>
