<svg width="254" height="1022" viewBox="0 0 254 1022" fill="none" xmlns="http://www.w3.org/2000/svg">
<path d="M123.521 155.832C123.534 158.232 120.821 159.447 115.381 159.476C104.021 159.538 92.9523 154.318 82.1748 143.817C71.5574 133.315 66.1272 120.464 65.8843 105.265C65.8258 94.5455 69.9981 82.1226 78.4012 67.9965C67.6263 57.9752 62.1979 45.4446 62.1159 30.4048C62.0618 20.485 64.502 13.1915 69.4366 8.52456C74.3712 3.85757 80.9185 1.50182 89.0784 1.45731C97.2382 1.4128 103.334 4.33959 107.367 10.2377C111.56 16.2949 113.682 23.9634 113.732 33.2433C113.759 38.2032 113.544 42.8445 113.088 47.167C132.608 47.0605 151.659 49.1167 170.243 53.3353C172.934 48.0406 175.949 43.4641 179.288 39.6058C182.628 35.9075 185.258 34.0532 187.178 34.0427C192.298 34.0147 194.864 35.1208 194.876 37.3607C194.893 40.5607 193.951 43.8459 192.05 47.2163C190.309 50.7458 188.969 54.5132 188.031 58.5184C216.725 68.282 235.279 81.781 243.693 99.0154C246.606 105.08 248.081 111.472 248.118 118.192C248.255 143.471 237.685 156.169 216.405 156.285C204.245 156.351 193.74 151.849 184.891 142.777C172.662 130.203 166.157 111.038 165.377 85.2824C151.927 83.5957 136.003 82.8026 117.603 82.9029C113.123 82.9274 108.08 82.3949 102.474 81.3054C99.6247 86.9211 97.0144 92.3754 94.6433 97.6684C92.2721 102.961 91.1075 109.448 91.1494 117.128C91.1712 121.128 92.8725 125.038 96.2534 128.86C99.6352 132.842 103.335 136.502 107.354 139.84C111.373 143.338 115.07 146.438 118.444 149.139C121.819 151.841 123.511 154.072 123.521 155.832ZM224.595 117.84C224.522 104.4 211.669 94.71 186.036 88.7697C187.059 100.284 190.312 109.947 195.794 117.757C201.438 125.726 207.06 129.696 212.66 129.665C220.659 129.621 224.638 125.68 224.595 117.84ZM87.5254 24.7461C83.0463 24.9306 80.8234 28.0627 80.8565 34.1426C80.8897 40.2226 84.4306 44.0433 91.4792 45.6049C93.6948 41.1127 94.7947 37.4267 94.779 34.5467C94.744 28.1468 92.3262 24.8799 87.5254 24.7461ZM116.416 305.25C101.856 305.33 94.5872 307.369 94.609 311.369C94.6221 313.769 96.1582 316.721 99.2174 320.224C102.277 323.728 105.576 327.23 109.115 330.73C112.814 334.23 116.191 337.412 119.247 340.275C122.304 343.299 123.835 345.37 123.841 346.49C123.853 348.73 121.139 349.865 115.699 349.895C104.5 349.956 93.5888 344.335 82.967 333.033C72.346 321.891 67.0007 309.92 66.9308 297.12C66.7272 289.121 70.1375 283.662 77.1617 280.744C82.7494 278.473 91.7031 277.305 104.023 277.237C79.1648 266.653 66.6782 250.801 66.563 229.681C66.4853 215.441 69.9433 204.062 76.9369 195.544C84.0914 187.185 95.3486 182.963 110.708 182.88C114.388 182.859 124.079 184.807 139.781 188.721C155.643 192.795 168.621 196.004 178.714 198.349C188.967 200.693 197.053 201.849 202.973 201.817C215.933 201.746 222.395 198.431 222.359 191.871C222.347 189.631 221.695 187.554 220.405 185.641C219.115 183.888 217.745 182.056 216.295 180.144C214.845 178.391 213.475 176.559 212.185 174.646C210.894 172.733 210.242 170.496 210.228 167.936C210.215 165.536 212.369 164.325 216.689 164.301C225.488 164.253 232.711 168.294 238.355 176.423C244.158 184.232 247.089 193.576 247.148 204.456C247.207 215.335 242.772 223.52 233.842 229.009C227.305 233.204 219.876 235.325 211.556 235.37C203.396 235.415 195.392 234.578 187.542 232.861C179.853 231.143 171.922 229.266 163.751 227.231C155.581 225.355 147.251 223.561 138.761 221.847C130.432 220.132 123.547 219.29 118.107 219.32C112.827 219.349 109.309 219.608 107.551 220.097C100.524 222.376 97.0333 227.835 97.0805 236.475C97.1416 247.674 104.235 257.396 118.36 265.639C130.238 272.614 144.665 277.496 161.64 280.283L172.448 281.664L222.602 280.431C229.962 280.39 236.059 283.557 240.894 289.931C245.729 296.305 248.086 303.012 247.964 310.053C247.98 312.933 245.83 314.784 241.514 315.608C237.359 316.431 232.721 316.856 227.601 316.884C222.481 316.912 217.519 316.619 212.716 316.005C208.073 315.39 202.628 314.62 196.383 313.694C190.299 312.927 183.734 312.003 176.688 310.922C147.705 306.92 127.615 305.029 116.416 305.25ZM239.859 496.207C230.58 496.257 203.761 478.243 159.403 442.165C150.932 443.811 142.781 445.375 134.949 446.858C127.277 448.34 120.485 449.977 114.575 451.769C108.825 453.561 104.196 455.586 100.688 457.845C97.1812 460.264 95.4356 462.914 95.4514 465.794C95.4671 468.674 97.0045 471.865 100.064 475.369C103.123 478.872 106.422 482.374 109.961 485.875C113.66 489.375 117.038 492.556 120.093 495.42C123.15 498.443 124.681 500.515 124.687 501.635C124.7 503.875 121.986 505.01 116.546 505.039C105.506 505.1 94.5951 499.479 83.8133 488.178C73.1915 476.875 67.8461 464.904 67.7771 452.265C67.7047 438.985 79.1674 428.442 102.165 420.637C109.033 418.359 116.301 416.159 123.969 414.037C117.864 409.431 111.357 404.506 104.449 399.264C97.6999 394.02 91.429 388.375 85.6359 382.326C72.281 368.639 65.5722 356.035 65.5094 344.515C65.4902 340.995 66.0353 338.272 67.1448 336.346C68.2543 334.42 69.2891 333.455 70.2491 333.449C71.369 333.443 72.4125 334.078 73.3795 335.352C74.3465 336.627 77.3247 339.971 82.3143 345.384C104.203 368.945 128.156 389.534 154.172 407.153C169.516 404.029 182.7 401.077 193.725 398.297C192.419 393.664 191.753 388.787 191.725 383.667C191.661 371.988 193.61 362.697 197.573 355.795C202.485 346.968 209.581 342.529 218.861 342.479C228.14 342.428 235.596 345.348 241.229 351.237C246.861 357.126 249.701 364.471 249.749 373.271C249.798 382.231 248.319 389.759 245.312 395.855C242.465 401.951 238.495 407.413 233.401 412.241C224.806 420.448 211.884 427.398 194.634 433.092C199.611 436.105 204.748 439.277 210.047 442.608C215.506 446.099 220.643 449.271 225.459 452.124C230.275 455.138 234.53 457.835 238.223 460.215C241.916 462.595 244.646 464.34 246.412 465.45C248.339 466.72 249.388 468.474 249.56 470.713C249.748 475.832 248.899 481.357 247.011 487.287C245.283 493.217 242.899 496.19 239.859 496.207ZM228.652 377.466C228.636 374.586 226.628 373.157 222.628 373.179C218.788 373.2 215.279 375.139 212.1 378.996C208.921 383.014 206.71 388.306 205.466 394.873C220.959 389.828 228.687 384.026 228.652 377.466ZM118.245 640.636C103.686 640.715 96.4167 642.755 96.4385 646.755C96.4516 649.155 97.9877 652.107 101.047 655.61C104.106 659.113 107.405 662.615 110.944 666.116C114.643 669.616 118.021 672.798 121.077 675.661C124.133 678.684 125.664 680.756 125.671 681.876C125.683 684.116 122.969 685.251 117.529 685.28C106.329 685.342 95.4183 679.721 84.7965 668.419C74.1756 657.276 68.8302 645.305 68.7604 632.506C68.5567 624.507 71.967 619.048 78.9912 616.13C84.5789 613.859 93.5326 612.69 105.852 612.623C80.9943 602.038 68.5077 586.186 68.3925 565.067C68.3148 550.827 71.7728 539.448 78.7664 530.93C85.9209 522.57 97.1781 518.349 112.538 518.265C116.218 518.245 125.909 520.192 141.61 524.107C157.473 528.18 170.45 531.389 180.543 533.734C190.796 536.079 198.883 537.234 204.803 537.202C217.762 537.131 224.224 533.816 224.189 527.256C224.176 525.016 223.525 522.94 222.235 521.027C220.945 519.274 219.575 517.441 218.124 515.529C216.675 513.777 215.305 511.944 214.014 510.031C212.724 508.118 212.072 505.882 212.058 503.322C212.045 500.922 214.198 499.71 218.518 499.687C227.318 499.639 234.54 503.679 240.185 511.809C245.987 519.617 248.918 528.961 248.978 539.841C249.037 550.721 244.601 558.905 235.671 564.394C229.134 568.59 221.706 570.71 213.386 570.756C205.226 570.8 197.221 569.964 189.372 568.247C181.682 566.529 173.752 564.652 165.581 562.616C157.41 560.741 149.08 558.946 140.591 557.233C132.261 555.518 125.377 554.676 119.937 554.705C114.657 554.734 111.138 554.993 109.381 555.483C102.353 557.761 98.8629 563.22 98.91 571.86C98.9711 583.06 106.064 592.782 120.189 601.025C132.068 608 146.494 612.881 163.47 615.669L174.278 617.05L224.432 615.816C231.792 615.776 237.889 618.943 242.724 625.317C247.559 631.69 249.915 638.398 249.794 645.438C249.809 648.318 247.659 650.17 243.344 650.994C239.188 651.816 234.55 652.242 229.431 652.27C224.311 652.297 219.349 652.004 214.546 651.391C209.902 650.776 204.458 650.006 198.213 649.08C192.128 648.313 185.563 647.389 178.517 646.307C149.535 642.305 129.444 640.415 118.245 640.636ZM127.292 847.096C127.307 849.816 123.634 851.196 116.274 851.237C112.274 851.258 107.385 849.605 101.607 846.277C95.9887 842.947 90.7648 838.576 85.9352 833.162C81.2664 827.907 77.3942 822.008 74.3185 815.465C71.2427 808.922 69.6887 802.69 69.6564 796.77C69.6241 790.85 70.7188 786.204 72.9404 782.832C75.1621 779.46 78.1876 776.803 82.0171 774.862C87.4422 772.113 97.7498 769.816 112.94 767.974C128.29 766.13 139 764.311 145.071 762.518C145.848 758.354 147.428 754.665 149.81 751.452C152.354 748.398 155.385 746.862 158.905 746.843C162.585 746.822 165.234 748.408 166.851 751.599C168.47 754.95 169.29 758.706 169.313 762.866C169.337 767.186 168.317 771.032 166.256 774.403C169.96 778.863 174.3 782.439 179.275 785.132C184.41 787.984 191.218 789.387 199.698 789.341C208.338 789.294 215.202 786.376 220.29 780.588C225.379 774.8 227.893 766.306 227.831 755.107C227.771 744.067 226.845 735.592 225.053 729.681C223.26 723.771 221.313 718.662 219.209 714.353C217.106 710.204 215.166 706.455 213.388 703.105C211.61 699.914 210.714 696.879 210.698 693.999C210.682 691.119 211.554 689.674 213.314 689.665C215.234 689.654 218.283 691.158 222.459 694.175C226.636 697.192 230.82 701.65 235.012 707.547C245.493 722.37 250.705 739.142 250.647 757.862C250.749 776.582 247.313 792.041 240.34 804.239C232.097 818.524 219.657 825.712 203.017 825.803C189.258 826.038 177.798 822.501 168.638 815.19C159.478 807.88 152.869 798.796 148.809 787.938C143.543 790.367 137.873 792.318 131.801 793.791C125.73 795.424 120.138 796.975 115.026 798.443C109.914 799.911 105.683 801.534 102.333 803.312C98.9831 805.25 97.3153 807.499 97.3293 810.059C97.3441 812.779 98.8816 815.971 101.942 819.634C105.163 823.457 108.623 827.198 112.323 830.858C116.023 834.518 119.401 837.779 122.457 840.643C125.673 843.665 127.285 845.816 127.292 847.096ZM213.121 742.227C213.132 744.307 210.418 745.362 204.978 745.391C199.538 745.421 194.417 745.129 189.613 744.515C180.325 743.126 171.676 741.333 163.663 739.136C141.872 733.495 129.137 730.685 125.457 730.705L90.1774 730.897C81.5375 730.944 75.5997 727.697 72.364 721.154C70.9074 718.122 69.5313 715.17 68.2356 712.297C66.9408 709.584 66.2838 706.467 66.2646 702.947C66.2279 696.227 73.8895 692.825 89.2492 692.742C104.769 692.657 124.308 696.15 147.867 703.222C171.426 710.294 189.387 717.716 201.75 725.488C204.158 727.075 206.651 729.382 209.227 732.408C211.804 735.434 213.102 738.707 213.121 742.227ZM129.745 900.829C120.145 900.881 115.368 905.147 115.415 913.627C115.465 922.907 121.11 931.116 132.349 938.255C140.839 940.129 155.579 943.649 176.567 948.814C197.557 954.14 210.454 957.269 215.259 958.203C224.71 960.232 232.243 962.511 237.857 965.04C243.472 967.73 246.29 971.074 246.312 975.074C246.352 982.434 244.702 988.043 241.363 991.901C238.185 995.919 232.276 997.951 223.636 997.998C215.156 998.044 205.541 995.217 194.79 989.515C189.025 988.587 183.019 987.58 176.773 986.494C170.527 985.408 162.359 984.012 152.27 982.307C142.18 980.602 125.043 977.416 100.857 972.748C108.64 991.585 115.022 1003.07 120.005 1007.2C124.989 1011.5 127.487 1014.84 127.5 1017.24C127.513 1019.64 125.04 1020.86 120.08 1020.88C115.12 1020.91 110.792 1019.41 107.095 1016.39C103.399 1013.53 99.2141 1008.92 94.5392 1002.54C89.8653 996.328 83.8825 984.84 76.591 968.08C41.0261 959.954 18.5435 944.876 9.14324 922.847C6.55011 916.781 5.23522 910.388 5.19856 903.668C5.12001 889.269 7.77757 877.814 13.1712 869.304C19.1979 859.511 28.2111 854.582 40.211 854.517C50.9308 854.458 62.3779 870.396 74.5523 902.33C80.5595 918.297 84.0522 927.959 85.0306 931.313C88.8705 931.292 93.8326 931.665 99.9169 932.432C94.2628 922.543 91.4035 911.678 91.339 899.838C91.2752 888.159 94.7472 879.339 101.755 873.381C108.922 867.422 118.746 864.408 131.226 864.34C137.146 864.308 143.471 865.233 150.201 867.117C156.933 869.16 163.745 871.363 170.638 873.725C177.692 876.247 184.584 878.449 191.314 880.333C198.045 882.376 204.291 883.382 210.051 883.351C220.771 883.292 226.113 879.983 226.077 873.423C226.065 871.183 225.413 869.107 224.123 867.194C222.833 865.441 221.463 863.608 220.013 861.696C218.563 859.944 217.193 858.111 215.903 856.198C214.612 854.285 213.96 852.049 213.946 849.489C213.933 847.089 216.086 845.877 220.406 845.854C229.206 845.806 236.428 849.846 242.073 857.976C247.876 865.784 250.807 875.128 250.866 886.008C250.925 896.888 246.97 905.069 239 910.553C233.102 914.745 226.394 916.862 218.874 916.903C211.354 916.944 204.069 916.104 197.02 914.382C190.13 912.66 183 910.779 175.629 908.739C168.258 906.859 160.728 905.06 153.039 903.342C145.509 901.623 137.745 900.785 129.745 900.829ZM26.8336 910.03C32.1484 916.401 43.3779 921.78 60.5221 926.167C57.4359 917.704 54.9167 910.517 52.9644 904.608C51.0121 898.698 49.2255 893.828 47.6046 889.997C45.9837 886.166 44.4484 883.374 42.9989 881.622C41.3893 879.871 39.5445 879.001 37.4645 879.012C33.4646 879.034 30.1977 881.452 27.664 886.265C25.1302 891.079 23.8751 895.646 23.8986 899.966C23.7622 904.287 24.7405 907.642 26.8336 910.03Z" fill="#EDE0D4"/>
</svg>
