<svg width="199" height="273" viewBox="0 0 199 273" fill="none" xmlns="http://www.w3.org/2000/svg">
<path fill-rule="evenodd" clip-rule="evenodd" d="M68.1784 7.50627C85.3983 -4.15877 105.04 -1.58135 121.238 10.7725C125.504 14.0387 129.126 18.0381 132.014 22.8819C134.458 27.0147 138.791 35.458 130.725 36.7689C127.57 37.2577 122.038 32.9694 117.749 31.5696C112.261 29.7921 106.595 28.6589 101.018 28.059C90.5975 27.0147 80.3101 27.859 71.4891 30.3031C66.712 31.6363 62.046 33.2583 57.5799 35.3024C55.5135 36.2801 51.2475 39.0797 50.1143 35.458C47.4035 27.0369 62.0015 11.7057 68.1784 7.50627ZM153.811 237.63L163.21 227.853L154.722 219.366L145.323 229.142L153.811 237.63ZM165.343 229.898L156.233 239.696C161.188 244.651 184.473 269.781 185.273 268.981L194.65 259.893C194.85 259.693 194.85 259.36 194.65 259.16L165.343 229.898ZM197.916 257.916C199.027 259.027 199.027 260.871 197.916 261.982L187.74 272.158C186.606 273.292 184.762 273.269 183.651 272.158L141.435 229.942C141.346 229.853 140.057 229.431 138.035 228.787C129.348 238.319 119.371 245.895 108.506 249.895C97.2411 254.072 85.065 254.361 72.4889 249.095C65.9787 246.362 59.313 242.096 52.6695 236.119C46.5814 230.631 41.0711 223.832 36.0718 215.9C31.4502 208.589 27.2952 200.257 23.4958 191.103C21.8071 190.614 20.2295 189.992 18.7409 189.303C16.6078 188.303 14.6303 187.126 12.875 185.77C7.67573 181.771 4.20954 176.327 2.1876 170.328C-0.0565333 163.662 -0.456478 156.263 0.454507 149.464C0.921109 145.931 1.92097 142.865 3.36521 140.31C4.94277 137.599 6.98693 135.422 9.60879 133.778C10.3642 133.311 11.2308 133.089 12.0307 133.156C10.5864 125.645 10.8086 118.446 11.0975 109.981C11.8974 87.8951 17.4966 70.2753 34.8942 54.9664C61.135 31.8585 113.106 29.8587 142.013 49.7449C146.301 52.7 150.278 56.2106 153.878 60.2989C165.609 73.7637 176.052 103.315 175.83 121.535C175.764 125.757 175.075 130.045 173.653 134.4C173.608 134.822 173.497 135.289 173.386 135.822C176.541 137.822 179.03 140.266 180.874 143.043C183.562 147.176 184.762 151.908 184.473 156.952C184.185 161.752 182.54 166.817 179.563 171.772C176.075 177.505 170.764 183.126 163.699 187.926C160.743 194.814 157.233 201.702 153.233 208.278L155.922 215.9L197.916 257.916ZM129.57 226.143C121.927 223.787 113.15 221.099 111.528 220.61C110.95 220.432 110.617 219.855 110.706 219.277C112.061 210.456 116.394 202.279 122.46 196.236C128.481 190.214 136.169 186.259 144.368 185.726C144.923 185.704 145.434 186.081 145.59 186.615L149.745 198.391C152.367 193.592 154.722 188.681 156.766 183.771C157.122 182.971 157.655 182.349 158.344 181.904C164.898 177.594 169.675 172.661 172.719 167.662C175.008 163.885 176.252 160.085 176.475 156.552C176.652 153.219 175.919 150.109 174.186 147.465C173.253 146.065 172.075 144.754 170.586 143.643C167.565 150.486 162.543 159.441 156.033 168.351V127.512C137.324 118.846 125.082 99.7824 118.838 71.1419C111.372 125.69 44.3817 123.312 27.5619 133.267V165.084C24.3623 160.618 21.5183 156.019 18.9186 151.397C16.7411 147.509 15.1414 143.932 13.9637 140.466L13.8749 140.532C12.4084 141.465 11.2308 142.71 10.342 144.287C9.36438 145.954 8.72003 148.042 8.38674 150.509C7.60907 156.197 7.96458 162.351 9.78655 167.795C11.2974 172.372 13.8971 176.461 17.741 179.416C19.1186 180.438 20.5628 181.349 22.1404 182.082C23.7624 182.837 25.4955 183.46 27.3841 183.926C28.6728 184.237 29.6727 185.148 30.1393 186.326C33.9165 195.791 38.1604 204.301 42.8042 211.7C47.3813 218.988 52.4695 225.209 58.0243 230.231C63.979 235.586 69.8449 239.385 75.5774 241.785C86.1315 246.229 96.3079 245.94 105.751 242.451C114.305 239.319 122.326 233.542 129.57 226.143ZM81.2433 207.212C82.6209 206.723 84.1318 207.456 84.5984 208.834C86.0871 211.678 97.3744 211.922 99.5074 208.678C100.063 207.345 101.596 206.723 102.951 207.279C104.285 207.834 104.907 209.389 104.351 210.723C100.552 218.21 82.7986 218.01 79.6435 210.567C79.1325 209.212 79.8879 207.701 81.2433 207.212ZM119.549 164.218L116.505 167.973C115.616 169.128 113.928 169.284 112.817 168.395C111.661 167.484 111.506 165.818 112.395 164.684L114.505 162.063C113.35 161.24 113.083 159.641 113.861 158.463C114.683 157.241 116.327 156.93 117.527 157.752C119.549 159.085 122.926 159.796 126.504 159.752C129.881 159.685 133.303 158.93 135.769 157.352C136.969 156.574 138.613 156.908 139.391 158.152C140.168 159.374 139.813 161.018 138.569 161.796L138.324 161.951L140.679 164.551C141.679 165.64 141.568 167.306 140.48 168.284C139.413 169.284 137.724 169.173 136.769 168.084L133.125 164.085C131.881 164.44 130.614 164.64 129.348 164.796V168.506C129.348 169.95 128.148 171.15 126.704 171.15C125.237 171.15 124.06 169.973 124.06 168.506V164.907C122.549 164.818 120.993 164.551 119.549 164.218ZM50.3365 164.285L47.3591 167.951C46.4703 169.106 44.7817 169.262 43.6485 168.351C42.4931 167.462 42.3598 165.773 43.2486 164.662L45.2705 162.151L45.2261 162.085C44.004 161.285 43.7152 159.641 44.5151 158.419C45.3149 157.197 46.9814 156.908 48.1812 157.708C50.1809 159.041 53.4249 159.796 56.9578 159.818C57.18 159.774 57.4022 159.73 57.6466 159.73C57.8465 159.73 58.0465 159.752 58.2243 159.796C61.3349 159.663 64.4901 158.93 66.9786 157.463C68.2451 156.73 69.8671 157.152 70.5781 158.441C71.3336 159.707 70.8892 161.329 69.6005 162.04L69.4449 162.129L71.578 164.484C72.5778 165.573 72.4667 167.24 71.4002 168.217C70.3115 169.217 68.645 169.106 67.6674 168.04L64.1568 164.196C62.8903 164.551 61.5349 164.751 60.2018 164.907V168.462C60.2018 169.928 59.0242 171.106 57.5577 171.106C56.1134 171.106 54.9136 169.928 54.9136 168.462V164.973C53.2916 164.929 51.7585 164.662 50.3365 164.285ZM116.994 146.842C115.816 147.687 114.172 147.398 113.328 146.22C112.483 145.021 112.772 143.399 113.95 142.554C118.905 139.044 123.971 137.244 129.17 137.199C134.347 137.177 139.546 138.932 144.723 142.51C145.923 143.354 146.212 144.998 145.39 146.176C144.568 147.376 142.901 147.665 141.724 146.842C137.435 143.91 133.258 142.443 129.17 142.465C125.082 142.465 121.016 143.954 116.994 146.842ZM42.8931 146.842C41.7154 147.687 40.0712 147.398 39.2269 146.22C38.4048 145.021 38.6714 143.399 39.849 142.554C44.8261 139.044 49.8699 137.244 55.0691 137.199C60.2684 137.177 65.4455 138.932 70.6225 142.51C71.8446 143.354 72.1112 144.998 71.3113 146.176C70.467 147.376 68.8228 147.665 67.6452 146.842C63.3569 143.91 59.1575 142.443 55.0914 142.465C51.0253 142.465 46.9814 143.954 42.8931 146.842Z" fill="#7F5539"/>
</svg>
