<svg width="167" height="244" viewBox="0 0 167 244" fill="none" xmlns="http://www.w3.org/2000/svg">
<path fill-rule="evenodd" clip-rule="evenodd" d="M84.0807 31.6769C91.1746 23.9605 98.9441 20.7632 105.719 20.6582V0H116.995V23.8126C123.123 27.8879 126.016 35.4277 122.338 43.5641L110.891 68.8989C108.936 73.881 107.875 78.8057 109.135 83.5921C109.992 86.8276 111.904 89.9962 115.321 93.079C141.765 117.478 162.842 145.796 166.482 186.831C166.482 198.67 169.236 216.465 162.052 226.195C156.357 233.912 148.192 234.747 137.949 229.755C128.833 241.418 116.834 244.148 101.542 236.665C89.8614 246.983 77.8764 246.195 65.6298 235.678C53.0643 243.217 40.7463 241.924 28.7375 229.755C22.7189 231.335 16.8382 231.884 11.2763 229.961C-2.42629 225.212 0.204795 217.467 0.204795 205.504C0.204795 183.185 4.52491 165.652 13.2793 144.88C21.753 124.784 30.0555 113.78 42.3069 100.619C53.6258 88.4596 63.8171 85.1717 54.3157 66.4318L45.4661 44.6044C41.8929 35.8 45.7658 27.7447 52.7789 23.6694V0H64.0502V20.8968C70.6636 21.1068 77.905 24.2707 84.0807 31.6769Z" fill="#7F5539"/>
</svg>
