<svg width="223" height="225" viewBox="0 0 223 225" fill="none" xmlns="http://www.w3.org/2000/svg">
<path fill-rule="evenodd" clip-rule="evenodd" d="M23.809 37.9944C30.036 36.0718 35.5487 34.7901 40.4754 33.5083C57.8927 29.2969 67.7643 26.8799 78.2037 2.94802C78.5844 2.074 79.2115 1.32976 80.0083 0.806233C80.8052 0.282706 81.7373 0.00255881 82.6908 2.02729e-05H141.023C142.111 -0.00310341 143.168 0.354831 144.03 1.01764C144.892 1.68045 145.509 2.61061 145.785 3.66213C147.744 9.43634 150.5 14.909 153.972 19.9219C156.823 24.0254 160.584 27.4154 164.961 29.8279L206.718 40.8142C207.185 40.9315 207.631 41.1231 208.037 41.3819C229.025 54.1992 223.22 78.003 218.183 98.6389C217.432 101.77 216.681 104.81 216.059 107.794C211.894 127.93 206.337 147.753 199.429 167.12C192.539 186.365 183.958 204.961 173.788 222.693C173.362 223.438 172.746 224.058 172.003 224.489C171.26 224.92 170.416 225.147 169.558 225.147H52.9294C52.0083 225.146 51.1059 224.887 50.3254 224.398C49.5449 223.909 48.9177 223.21 48.5156 222.382C41.5417 210.325 35.1904 197.918 29.4866 185.211C23.6825 172.357 18.6492 159.168 14.4136 145.715C11.5809 136.694 9.1023 127.405 6.97779 117.847C4.88991 108.344 3.18664 98.639 1.94124 88.7513L1.61158 86.2427C-1.04406 65.918 -3.90115 43.9453 23.809 37.9944ZM181.59 44.1651C181.206 45.7215 180.784 47.2412 180.345 48.7427C180.687 49.0727 181.011 49.4211 181.316 49.7864C183.097 51.9034 184.21 54.5007 184.515 57.2502C184.82 59.9997 184.302 62.7778 183.028 65.2333C181.754 67.6889 179.78 69.7117 177.357 71.0459C174.933 72.3802 172.168 72.9661 169.411 72.7295C169.137 72.7475 168.861 72.7475 168.587 72.7295C168.074 73.4436 167.543 74.1211 167.012 74.7986C167.762 76.8816 167.976 79.1194 167.636 81.3068C167.295 83.4943 166.411 85.5612 165.064 87.3181C163.717 89.075 161.95 90.4655 159.926 91.3622C157.901 92.2588 155.684 92.6329 153.477 92.45C151.758 92.3114 150.083 91.8321 148.551 91.0401C147.58 91.626 146.591 92.1753 145.602 92.7063V93.274C145.396 95.6704 144.486 97.9524 142.984 99.8319C141.483 101.711 139.459 103.104 137.166 103.835C134.874 104.566 132.417 104.601 130.105 103.937C127.792 103.273 125.729 101.939 124.174 100.104C122.067 100.47 119.943 100.745 117.818 100.928L135.437 118.543C136.079 119.191 136.439 120.066 136.439 120.978C136.439 121.89 136.079 122.765 135.437 123.413L113.936 144.782C113.616 145.104 113.235 145.36 112.815 145.535C112.395 145.71 111.945 145.8 111.491 145.8C111.036 145.8 110.586 145.71 110.166 145.535C109.747 145.36 109.366 145.104 109.046 144.782L87.5809 123.322C86.9389 122.674 86.5787 121.798 86.5787 120.886C86.5787 119.974 86.9389 119.099 87.5809 118.451L105.2 100.836C103.075 100.653 100.932 100.378 98.8261 100.012C97.2684 101.845 95.2033 103.177 92.8906 103.839C90.5778 104.502 88.1208 104.466 85.8284 103.736C83.5361 103.006 81.5109 101.615 80.0075 99.7367C78.5042 97.8588 77.5899 95.5785 77.3796 93.1824V92.6148C76.3906 92.0838 75.4016 91.5345 74.4309 90.9485C72.5032 91.9344 70.3628 92.432 68.1978 92.3975C66.0328 92.363 63.9093 91.7974 62.014 90.7506C60.1188 89.7037 58.5096 88.2075 57.328 86.3935C56.1463 84.5795 55.4283 82.5031 55.2371 80.3467C55.0738 78.4346 55.3301 76.5099 55.988 74.7071C55.4385 74.0296 54.9257 73.3521 54.3946 72.638C54.1202 72.6569 53.8448 72.6569 53.5704 72.638C50.8152 72.8705 48.0528 72.2817 45.632 70.9458C43.2112 69.6099 41.2405 67.587 39.9688 65.1323C38.6971 62.6776 38.1813 59.9012 38.4866 57.1537C38.7919 54.4062 39.9046 51.8106 41.6842 49.6949C41.9955 49.3286 42.3252 48.9807 42.6549 48.6511C42.142 46.9116 41.6659 45.1355 41.2446 43.3045C36.8125 44.3848 31.9408 45.6116 26.5929 47.2779L26.135 47.406C6.92285 51.4527 9.15724 68.8843 11.2817 84.9976L11.6114 87.5244C12.8324 97.1436 14.4685 106.549 16.5198 115.741C18.5161 124.896 20.9519 133.887 23.8456 142.804C27.966 155.899 32.8585 168.739 38.4974 181.256C43.6988 192.828 49.4862 204.144 55.8598 215.241H166.865C176.11 198.746 183.952 181.504 190.308 163.696C197.054 144.759 202.476 125.377 206.535 105.689C207.176 102.722 207.945 99.4995 208.751 96.222C212.945 79.01 217.78 59.198 203.568 49.9329L181.59 44.2017V44.1651ZM50.6767 41.0157C50.9697 42.3157 51.2994 43.5791 51.6657 44.8242C54.2774 44.6969 56.8724 45.3047 59.1558 46.5785C61.4391 47.8523 63.3192 49.7411 64.5823 52.0301C65.8453 54.3191 66.4407 56.9164 66.3006 59.5269C66.1606 62.1373 65.2907 64.6561 63.79 66.7969C65.696 66.0968 67.7377 65.8456 69.7566 66.0627C71.7755 66.2799 73.7171 66.9596 75.4304 68.049C77.1438 69.1385 78.5828 70.6083 79.6355 72.3442C80.6883 74.0801 81.3264 76.0353 81.5004 78.0579C81.66 79.8472 81.4416 81.6501 80.8594 83.3496H81.0059C83.1636 81.2259 86.037 79.9847 89.0627 79.8695C92.0884 79.7543 95.048 80.7735 97.3609 82.7271C99.6959 84.6793 101.212 87.4371 101.61 90.4541C108.145 91.4796 114.8 91.4796 121.335 90.4541C121.752 87.3472 123.347 84.5194 125.792 82.5561C128.236 80.5928 131.342 79.6445 134.467 79.9073C137.291 80.1386 139.943 81.3574 141.957 83.3496H142.085C141.405 81.2827 141.247 79.0797 141.624 76.9368C142.001 74.7938 142.903 72.7773 144.248 71.0666C145.593 69.3559 147.34 68.0041 149.333 67.1314C151.327 66.2587 153.505 65.8922 155.675 66.0645C156.846 66.1686 157.997 66.4272 159.1 66.8335C157.217 64.1694 156.33 60.9296 156.591 57.6782C156.899 54.0615 158.598 50.7053 161.331 48.315C164.063 45.9248 167.616 44.6866 171.242 44.8609C171.536 43.8355 171.81 42.7918 172.067 41.7298L162.232 39.1663C161.779 39.0742 161.342 38.9202 160.931 38.7085C154.998 35.6052 149.897 31.1214 146.06 25.6348C142.617 20.7528 139.805 15.4558 137.69 9.86941H85.8226C75.5664 31.8421 65.6765 37.0423 50.6767 40.9973V41.0157ZM111.5 113.525C113.191 113.552 114.821 114.163 116.113 115.254C117.404 116.345 118.279 117.849 118.588 119.511C118.897 121.174 118.621 122.892 117.807 124.374C116.993 125.856 115.691 127.011 114.122 127.643C112.553 128.274 110.814 128.344 109.2 127.84C107.586 127.335 106.196 126.288 105.266 124.876C104.336 123.464 103.924 121.773 104.098 120.092C104.273 118.41 105.025 116.84 106.225 115.649C106.918 114.962 107.742 114.42 108.648 114.055C109.554 113.69 110.523 113.51 111.5 113.525ZM111.5 104.37L94.9067 120.85L111.5 137.439L128.075 120.85L111.5 104.37ZM67.7643 71.6309C69.2657 71.5024 70.7715 71.8219 72.0912 72.549C73.4109 73.276 74.4854 74.378 75.1787 75.7156C75.872 77.0532 76.1531 78.5663 75.9863 80.0635C75.8195 81.5608 75.2123 82.9749 74.2416 84.1272C73.2709 85.2795 71.9803 86.1181 70.5329 86.5371C69.0854 86.956 67.5463 86.9364 66.11 86.4808C64.6737 86.0252 63.4048 85.154 62.4637 83.9774C61.5227 82.8008 60.9517 81.3717 60.8231 79.8706C60.6555 77.8588 61.2917 75.8624 62.5925 74.3183C63.8933 72.7741 65.7528 71.8079 67.7643 71.6309ZM89.0094 85.3089C90.3624 85.1945 91.7189 85.4836 92.9076 86.1397C94.0963 86.7957 95.0638 87.7894 95.6878 88.995C96.3119 90.2006 96.5645 91.5641 96.4138 92.9132C96.2631 94.2622 95.7157 95.5364 94.841 96.5746C93.9662 97.6129 92.8033 98.3685 91.4991 98.7462C90.1949 99.1239 88.808 99.1067 87.5136 98.6966C86.2193 98.2866 85.0755 97.5021 84.2269 96.4425C83.3783 95.3828 82.8628 94.0954 82.7458 92.743C82.6679 91.8435 82.7682 90.9375 83.041 90.0768C83.3138 89.2161 83.7537 88.4177 84.3355 87.7272C84.9173 87.0367 85.6295 86.4676 86.4315 86.0527C87.2336 85.6377 88.1096 85.385 89.0094 85.3089ZM51.7206 50.5188C53.904 50.3343 56.0713 51.0245 57.7457 52.4375C59.4201 53.8506 60.4645 55.8707 60.6491 58.0536C60.8336 60.2365 60.1433 62.4033 58.7299 64.0773C57.3166 65.7513 55.2959 66.7955 53.1126 66.98C52.04 67.0851 50.9572 66.9775 49.9263 66.6633C48.8955 66.3491 47.9368 65.8345 47.1053 65.149C45.4628 63.7639 44.4248 61.7934 44.2116 59.6558C44.1137 58.5787 44.2302 57.493 44.5545 56.4612C44.8788 55.4294 45.4044 54.4722 46.1009 53.6447C46.7974 52.8172 47.6511 52.136 48.6125 51.6403C49.574 51.1446 50.6241 50.8444 51.7023 50.7569L51.7206 50.5188ZM155.254 71.6309C153.752 71.5024 152.247 71.8219 150.927 72.549C149.607 73.276 148.533 74.378 147.839 75.7156C147.146 77.0532 146.865 78.5663 147.032 80.0635C147.199 81.5608 147.806 82.9749 148.776 84.1272C149.747 85.2795 151.038 86.1181 152.485 86.5371C153.933 86.956 155.472 86.9364 156.908 86.4808C158.344 86.0252 159.613 85.154 160.554 83.9774C161.495 82.8008 162.066 81.3717 162.195 79.8706C162.283 78.8735 162.173 77.8688 161.871 76.9142C161.57 75.9597 161.082 75.0742 160.437 74.3085C159.792 73.5429 159.002 72.9121 158.113 72.4526C157.223 71.9931 156.252 71.7139 155.254 71.6309ZM134.009 85.3089C132.656 85.1945 131.299 85.4836 130.111 86.1397C128.922 86.7957 127.954 87.7894 127.33 88.995C126.706 90.2006 126.454 91.5641 126.604 92.9132C126.755 94.2622 127.302 95.5364 128.177 96.5746C129.052 97.6129 130.215 98.3685 131.519 98.7462C132.823 99.1239 134.21 99.1067 135.504 98.6966C136.799 98.2866 137.943 97.5021 138.791 96.4425C139.64 95.3828 140.155 94.0954 140.272 92.743C140.35 91.8435 140.25 90.9375 139.977 90.0768C139.704 89.2161 139.264 88.4177 138.683 87.7272C138.101 87.0367 137.389 86.4676 136.587 86.0527C135.785 85.6377 134.909 85.385 134.009 85.3089ZM171.297 50.5188C170.228 50.41 169.147 50.516 168.118 50.8304C167.09 51.1448 166.135 51.6614 165.309 52.3499C163.666 53.7349 162.628 55.7054 162.415 57.843C162.272 59.4641 162.613 61.0911 163.396 62.518C164.179 63.9449 165.368 65.1074 166.812 65.8584C168.256 66.6094 169.89 66.915 171.508 66.7366C173.126 66.5581 174.654 65.9037 175.9 64.8561C177.146 63.8084 178.052 62.4148 178.505 60.8517C178.958 59.2886 178.937 57.6263 178.444 56.0753C177.951 54.5243 177.009 53.1545 175.736 52.1393C174.464 51.124 172.919 50.5091 171.297 50.3723V50.5188Z" fill="#7F5539"/>
</svg>
